<mxfile host="app.diagrams.net" modified="2023-07-27T15:23:29.561Z" agent="Mozilla/5.0 (Windows NT 10.0; Win64; x64; rv:109.0) Gecko/20100101 Firefox/115.0" etag="1-LQ6RqzJcFgqd1R8h3F" version="21.6.1" type="device">
  <diagram name="Page-1" id="Uyp_awrO6e-3FYGAnscl">
    <mxGraphModel dx="1434" dy="792" grid="1" gridSize="10" guides="1" tooltips="1" connect="1" arrows="1" fold="1" page="1" pageScale="1" pageWidth="850" pageHeight="1100" math="0" shadow="0">
      <root>
        <mxCell id="0" />
        <mxCell id="1" parent="0" />
        <mxCell id="p10zAS-0-I1U4U1kj_FY-1" value="&lt;h1&gt;Paytm&lt;/h1&gt;" style="rounded=1;whiteSpace=wrap;html=1;" vertex="1" parent="1">
          <mxGeometry x="273" y="20" width="305" height="140" as="geometry" />
        </mxCell>
        <mxCell id="p10zAS-0-I1U4U1kj_FY-2" value="&lt;h2&gt;User&lt;/h2&gt;" style="rounded=1;whiteSpace=wrap;html=1;" vertex="1" parent="1">
          <mxGeometry x="335.5" y="340" width="180" height="100" as="geometry" />
        </mxCell>
        <mxCell id="p10zAS-0-I1U4U1kj_FY-3" value="" style="endArrow=classic;html=1;rounded=0;exitX=0.5;exitY=1;exitDx=0;exitDy=0;entryX=0.5;entryY=0;entryDx=0;entryDy=0;" edge="1" parent="1" source="p10zAS-0-I1U4U1kj_FY-1" target="p10zAS-0-I1U4U1kj_FY-2">
          <mxGeometry width="50" height="50" relative="1" as="geometry">
            <mxPoint x="400" y="400" as="sourcePoint" />
            <mxPoint x="460" y="240" as="targetPoint" />
          </mxGeometry>
        </mxCell>
        <mxCell id="p10zAS-0-I1U4U1kj_FY-4" value="&lt;h3&gt;&lt;code class=&quot;!whitespace-pre hljs language-sql&quot;&gt;Request Bill Payment&lt;/code&gt;&lt;/h3&gt;" style="shape=callout;whiteSpace=wrap;html=1;perimeter=calloutPerimeter;position2=0;" vertex="1" parent="1">
          <mxGeometry x="460" y="200" width="165.5" height="110" as="geometry" />
        </mxCell>
        <mxCell id="p10zAS-0-I1U4U1kj_FY-5" value="&lt;h2&gt;Payment&lt;/h2&gt;" style="rounded=1;whiteSpace=wrap;html=1;" vertex="1" parent="1">
          <mxGeometry x="335.5" y="600" width="180" height="100" as="geometry" />
        </mxCell>
        <mxCell id="p10zAS-0-I1U4U1kj_FY-6" value="" style="endArrow=classic;html=1;rounded=0;exitX=0.5;exitY=1;exitDx=0;exitDy=0;entryX=0.5;entryY=0;entryDx=0;entryDy=0;" edge="1" parent="1" source="p10zAS-0-I1U4U1kj_FY-2" target="p10zAS-0-I1U4U1kj_FY-5">
          <mxGeometry width="50" height="50" relative="1" as="geometry">
            <mxPoint x="400" y="530" as="sourcePoint" />
            <mxPoint x="450" y="480" as="targetPoint" />
          </mxGeometry>
        </mxCell>
        <mxCell id="p10zAS-0-I1U4U1kj_FY-7" value="&lt;h3&gt;&lt;code&gt;Enter Payment Details&lt;br&gt;&lt;/code&gt;&lt;/h3&gt;" style="shape=callout;whiteSpace=wrap;html=1;perimeter=calloutPerimeter;position2=0;" vertex="1" parent="1">
          <mxGeometry x="460" y="470" width="165.5" height="110" as="geometry" />
        </mxCell>
        <mxCell id="p10zAS-0-I1U4U1kj_FY-8" value="&lt;h2&gt;Biller&lt;/h2&gt;" style="rounded=1;whiteSpace=wrap;html=1;" vertex="1" parent="1">
          <mxGeometry x="335.5" y="860" width="180" height="100" as="geometry" />
        </mxCell>
        <mxCell id="p10zAS-0-I1U4U1kj_FY-9" value="" style="endArrow=classic;html=1;rounded=0;exitX=0.5;exitY=1;exitDx=0;exitDy=0;entryX=0.5;entryY=0;entryDx=0;entryDy=0;" edge="1" parent="1" source="p10zAS-0-I1U4U1kj_FY-5" target="p10zAS-0-I1U4U1kj_FY-8">
          <mxGeometry width="50" height="50" relative="1" as="geometry">
            <mxPoint x="400" y="800" as="sourcePoint" />
            <mxPoint x="450" y="750" as="targetPoint" />
          </mxGeometry>
        </mxCell>
        <mxCell id="p10zAS-0-I1U4U1kj_FY-10" value="&lt;h3&gt;Process Payment&lt;/h3&gt;" style="shape=callout;whiteSpace=wrap;html=1;perimeter=calloutPerimeter;position2=0;" vertex="1" parent="1">
          <mxGeometry x="450" y="720" width="165.5" height="110" as="geometry" />
        </mxCell>
        <mxCell id="p10zAS-0-I1U4U1kj_FY-11" value="&lt;h2&gt;Paytm&lt;/h2&gt;" style="rounded=1;whiteSpace=wrap;html=1;" vertex="1" parent="1">
          <mxGeometry x="335.5" y="1130" width="180" height="100" as="geometry" />
        </mxCell>
        <mxCell id="p10zAS-0-I1U4U1kj_FY-12" value="" style="endArrow=classic;html=1;rounded=0;exitX=0.5;exitY=1;exitDx=0;exitDy=0;entryX=0.5;entryY=0;entryDx=0;entryDy=0;" edge="1" parent="1" source="p10zAS-0-I1U4U1kj_FY-8" target="p10zAS-0-I1U4U1kj_FY-11">
          <mxGeometry width="50" height="50" relative="1" as="geometry">
            <mxPoint x="400" y="980" as="sourcePoint" />
            <mxPoint x="450" y="930" as="targetPoint" />
          </mxGeometry>
        </mxCell>
        <mxCell id="p10zAS-0-I1U4U1kj_FY-13" value="&lt;h3&gt;Confirm Payment&lt;/h3&gt;" style="shape=callout;whiteSpace=wrap;html=1;perimeter=calloutPerimeter;position2=0;" vertex="1" parent="1">
          <mxGeometry x="450" y="990" width="165.5" height="110" as="geometry" />
        </mxCell>
        <mxCell id="p10zAS-0-I1U4U1kj_FY-14" value="&lt;h1&gt;END&lt;/h1&gt;" style="ellipse;whiteSpace=wrap;html=1;" vertex="1" parent="1">
          <mxGeometry x="307.75" y="1380" width="235.5" height="150" as="geometry" />
        </mxCell>
        <mxCell id="p10zAS-0-I1U4U1kj_FY-15" value="" style="endArrow=classic;html=1;rounded=0;exitX=0.5;exitY=1;exitDx=0;exitDy=0;entryX=0.5;entryY=0;entryDx=0;entryDy=0;" edge="1" parent="1" source="p10zAS-0-I1U4U1kj_FY-11" target="p10zAS-0-I1U4U1kj_FY-14">
          <mxGeometry width="50" height="50" relative="1" as="geometry">
            <mxPoint x="400" y="1230" as="sourcePoint" />
            <mxPoint x="450" y="1180" as="targetPoint" />
          </mxGeometry>
        </mxCell>
        <mxCell id="p10zAS-0-I1U4U1kj_FY-16" value="Complete Payment" style="shape=callout;whiteSpace=wrap;html=1;perimeter=calloutPerimeter;position2=0;" vertex="1" parent="1">
          <mxGeometry x="450" y="1250" width="165.5" height="110" as="geometry" />
        </mxCell>
      </root>
    </mxGraphModel>
  </diagram>
</mxfile>
